<svg xmlns="http://www.w3.org/2000/svg" viewBox="0 0 1200 640" width="1200" height="640" font-family="Inter, Segoe UI, Roboto, Helvetica, Arial, sans-serif" role="img" aria-labelledby="t d"><title id="t">Ask India architecture</title><desc id="d">The browser redacts personal data and sends questions to Next.js routes in the Mumbai Vercel region, which count them in Upstash Redis, ask OpenAI with web search limited to gov.in and nic.in, and open every cited link before showing it.</desc><defs><marker id="a-main" viewBox="0 0 10 10" refX="9" refY="5" markerWidth="7" markerHeight="7" orient="auto-start-reverse"><path d="M0 0 L10 5 L0 10 z" fill="#0969da"/></marker><marker id="a-sec" viewBox="0 0 10 10" refX="9" refY="5" markerWidth="7" markerHeight="7" orient="auto-start-reverse"><path d="M0 0 L10 5 L0 10 z" fill="#8c959f"/></marker></defs><rect x="0.5" y="0.5" width="1199" height="639" rx="16" fill="#ffffff" stroke="#e3e6ea"/><rect x="24" y="24" width="252" height="552" rx="14" fill="#eef4ff"/>
<text x="40" y="48" font-size="12" fill="#57606a" font-weight="600" letter-spacing="0.06em">CLIENT</text>
<rect x="300" y="24" width="452" height="552" rx="14" fill="#f6f8fa"/>
<text x="316" y="48" font-size="12" fill="#57606a" font-weight="600" letter-spacing="0.06em">VERCEL, MUMBAI (BOM1)</text>
<rect x="776" y="290" width="176" height="286" rx="14" fill="#edf8f1"/>
<text x="792" y="314" font-size="12" fill="#57606a" font-weight="600" letter-spacing="0.06em">DATA</text>
<rect x="968" y="24" width="208" height="552" rx="14" fill="#f5f0ff"/>
<text x="984" y="48" font-size="12" fill="#57606a" font-weight="600" letter-spacing="0.06em">EXTERNAL SERVICES</text>
<path d="M32 606 L68 606" stroke="#0969da" stroke-width="2" marker-end="url(#a-main)"/>
<text x="78" y="610" font-size="12" fill="#57606a" text-anchor="start">Request path</text>
<path d="M192 606 L228 606" stroke="#8c959f" stroke-width="1.5" stroke-dasharray="5 4" marker-end="url(#a-sec)"/>
<text x="238" y="610" font-size="12" fill="#57606a" text-anchor="start">Secondary or optional path</text>
<circle cx="430" cy="606" r="11" fill="#0969da" stroke="#ffffff" stroke-width="2"/>
<text x="430" y="610.5" font-size="12" font-weight="700" fill="#ffffff" text-anchor="middle">1</text>
<text x="448" y="610" font-size="12" fill="#57606a" text-anchor="start">Step, see the list below</text>
<rect x="118" y="68" width="64" height="64" rx="12" fill="#ffffff" stroke="#d0d7de"/>
<rect x="128" y="84" width="44" height="32" rx="4" fill="#ffffff" stroke="#57606a" stroke-width="1.6"/>
<path d="M128 93 L172 93" stroke="#57606a" stroke-width="1.6"/>
<circle cx="134" cy="88.5" r="1.6" fill="#cf222e"/>
<circle cx="139" cy="88.5" r="1.6" fill="#bf8700"/>
<circle cx="144" cy="88.5" r="1.6" fill="#1a7f37"/>
<path d="M136 101 L158 101 M136 107 L164 107" stroke="#afb8c1" stroke-width="2" stroke-linecap="round"/>
<text x="150" y="152" font-size="14" fill="#1f2328" text-anchor="middle">Browser</text>
<text x="150" y="169" font-size="12" fill="#57606a" text-anchor="middle">React app</text>
<rect x="40" y="186" width="172" height="119" rx="10" fill="#ffffff" stroke="#d0d7de"/>
<text x="52" y="208" font-size="12" fill="#1f2328" text-anchor="start" font-weight="600">In the browser</text>
<text x="52" y="227" font-size="12" fill="#57606a" text-anchor="start">Redacts Aadhaar, PAN,</text>
<text x="52" y="244" font-size="12" fill="#57606a" text-anchor="start">phone, bank and card</text>
<text x="52" y="261" font-size="12" fill="#57606a" text-anchor="start">numbers before sending</text>
<text x="52" y="278" font-size="12" fill="#57606a" text-anchor="start">Streams the answer</text>
<text x="52" y="295" font-size="12" fill="#57606a" text-anchor="start">Shows verified links</text>
<rect x="118" y="460" width="64" height="64" rx="12" fill="#ffffff" stroke="#d0d7de"/>
<rect x="144" y="476" width="12" height="20" rx="6" fill="#ffffff" stroke="#57606a" stroke-width="1.6"/>
<path d="M139 490 A11 11 0 0 0 161 490 M150 501 L150 507 M144 507 L156 507" fill="none" stroke="#57606a" stroke-width="1.6" stroke-linecap="round"/>
<text x="150" y="544" font-size="14" fill="#1f2328" text-anchor="middle">MediaRecorder</text>
<text x="150" y="561" font-size="12" fill="#57606a" text-anchor="middle">voice, 30 s max</text>
<rect x="338" y="68" width="64" height="64" rx="12" fill="#ffffff" stroke="#d0d7de"/>
<polygon points="370,83 390,115 350,115" fill="#000000"/>
<text x="370" y="152" font-size="14" fill="#1f2328" text-anchor="middle">Next.js</text>
<text x="370" y="169" font-size="12" fill="#57606a" text-anchor="middle">route handlers</text>
<rect x="440" y="190" width="250" height="40" rx="9" fill="#ffffff" stroke="#d0d7de"/>
<rect x="449" y="199" width="22" height="22" rx="6" fill="#ddf4ff"/>
<text x="460" y="215" font-size="14" fill="#0969da" text-anchor="middle" font-style="italic" font-weight="700">f</text>
<text x="480" y="215" font-size="13" fill="#1f2328" text-anchor="start" font-family="ui-monospace, SFMono-Regular, Menlo, Consolas, monospace">POST /api/ask</text>
<text x="480" y="245" font-size="12" fill="#57606a" text-anchor="start">redacts again, 12 h answer cache</text>
<rect x="440" y="290" width="250" height="40" rx="9" fill="#ffffff" stroke="#d0d7de"/>
<rect x="449" y="299" width="22" height="22" rx="6" fill="#ddf4ff"/>
<text x="460" y="315" font-size="14" fill="#0969da" text-anchor="middle" font-style="italic" font-weight="700">f</text>
<text x="480" y="315" font-size="13" fill="#1f2328" text-anchor="start" font-family="ui-monospace, SFMono-Regular, Menlo, Consolas, monospace">GET /api/ask</text>
<text x="480" y="345" font-size="12" fill="#57606a" text-anchor="start">quota, read only</text>
<rect x="440" y="380" width="250" height="40" rx="9" fill="#ffffff" stroke="#d0d7de"/>
<rect x="449" y="389" width="22" height="22" rx="6" fill="#ddf4ff"/>
<text x="460" y="405" font-size="14" fill="#0969da" text-anchor="middle" font-style="italic" font-weight="700">f</text>
<text x="480" y="405" font-size="13" fill="#1f2328" text-anchor="start" font-family="ui-monospace, SFMono-Regular, Menlo, Consolas, monospace">POST /api/feedback</text>
<text x="480" y="435" font-size="12" fill="#57606a" text-anchor="start">anonymous counter</text>
<rect x="440" y="480" width="250" height="40" rx="9" fill="#ffffff" stroke="#d0d7de"/>
<rect x="449" y="489" width="22" height="22" rx="6" fill="#ddf4ff"/>
<text x="460" y="505" font-size="14" fill="#0969da" text-anchor="middle" font-style="italic" font-weight="700">f</text>
<text x="480" y="505" font-size="13" fill="#1f2328" text-anchor="start" font-family="ui-monospace, SFMono-Regular, Menlo, Consolas, monospace">POST /api/transcribe</text>
<text x="480" y="535" font-size="12" fill="#57606a" text-anchor="start">1 MB and 35 s cap</text>
<rect x="1040" y="64" width="64" height="64" rx="12" fill="#ffffff" stroke="#d0d7de"/>
<circle cx="1072" cy="96" r="19" fill="#ffffff" stroke="#8250df" stroke-width="1.6"/>
<ellipse cx="1072" cy="96" rx="8" ry="19" fill="none" stroke="#8250df" stroke-width="1.3"/>
<path d="M1053 96 L1091 96 M1056 87 L1088 87 M1056 105 L1088 105" stroke="#8250df" stroke-width="1.2"/>
<text x="1072" y="148" font-size="14" fill="#1f2328" text-anchor="middle">Official sites</text>
<text x="1072" y="165" font-size="12" fill="#57606a" text-anchor="middle">gov.in, nic.in</text>
<text x="1072" y="181" font-size="12" fill="#57606a" text-anchor="middle">each cited link opened</text>
<rect x="1040" y="230" width="64" height="64" rx="12" fill="#ffffff" stroke="#d0d7de"/>
<polygon points="1072,242 1089.32,252.0 1089.32,272.0 1072,282 1054.68,272.0 1054.68,252.0" fill="#f5f0ff" stroke="#8250df" stroke-width="1.6"/>
<path d="M1072 252 Q1074 260 1082 262 Q1074 264 1072 272 Q1070 264 1062 262 Q1070 260 1072 252 z" fill="#8250df"/>
<text x="1072" y="314" font-size="14" fill="#1f2328" text-anchor="middle">OpenAI</text>
<text x="1072" y="331" font-size="12" fill="#57606a" text-anchor="middle">gpt-5.4-mini</text>
<text x="1072" y="347" font-size="12" fill="#57606a" text-anchor="middle">web_search: gov.in, nic.in</text>
<rect x="1040" y="448" width="64" height="64" rx="12" fill="#ffffff" stroke="#d0d7de"/>
<polygon points="1072,460 1089.32,470.0 1089.32,490.0 1072,500 1054.68,490.0 1054.68,470.0" fill="#f5f0ff" stroke="#8250df" stroke-width="1.6"/>
<path d="M1072 470 Q1074 478 1082 480 Q1074 482 1072 490 Q1070 482 1062 480 Q1070 478 1072 470 z" fill="#8250df"/>
<text x="1072" y="532" font-size="14" fill="#1f2328" text-anchor="middle">OpenAI</text>
<text x="1072" y="549" font-size="12" fill="#57606a" text-anchor="middle">gpt-4o-mini-transcribe</text>
<rect x="832" y="340" width="64" height="64" rx="12" fill="#ffffff" stroke="#d0d7de"/>
<path d="M844 357 L844 385 A20 6 0 0 0 884 385 L884 357" fill="#d1f0dc" stroke="#1a7f37" stroke-width="1.6"/>
<ellipse cx="864" cy="357" rx="20" ry="6" fill="#eafaf0" stroke="#1a7f37" stroke-width="1.6"/>
<path d="M844 367 A20 6 0 0 0 884 367 M844 376 A20 6 0 0 0 884 376" fill="none" stroke="#1a7f37" stroke-width="1.2"/>
<text x="864" y="424" font-size="14" fill="#1f2328" text-anchor="middle">Upstash Redis</text>
<text x="864" y="441" font-size="12" fill="#57606a" text-anchor="middle">limits, budgets</text>
<text x="864" y="457" font-size="12" fill="#57606a" text-anchor="middle">link verdicts</text>
<path d="M182 92 L240 92 L240 204 L436 204" fill="none" stroke="#0969da" stroke-width="2" stroke-linejoin="round" marker-end="url(#a-main)"/>
<circle cx="330" cy="204" r="11" fill="#0969da" stroke="#ffffff" stroke-width="2"/>
<text x="330" y="208.5" font-size="12" font-weight="700" fill="#ffffff" text-anchor="middle">1</text>
<path d="M690 224 L712 224 L712 364 L828 364" fill="none" stroke="#0969da" stroke-width="2" stroke-linejoin="round" marker-end="url(#a-main)"/>
<circle cx="712" cy="300" r="11" fill="#0969da" stroke="#ffffff" stroke-width="2"/>
<text x="712" y="304.5" font-size="12" font-weight="700" fill="#ffffff" text-anchor="middle">2</text>
<path d="M690 212 L760 212 L760 262 L1036 262" fill="none" stroke="#0969da" stroke-width="2" stroke-linejoin="round" marker-end="url(#a-main)"/>
<circle cx="900" cy="262" r="11" fill="#0969da" stroke="#ffffff" stroke-width="2"/>
<text x="900" y="266.5" font-size="12" font-weight="700" fill="#ffffff" text-anchor="middle">3</text>
<path d="M690 198 L740 198 L740 96 L1036 96" fill="none" stroke="#0969da" stroke-width="2" stroke-linejoin="round" marker-end="url(#a-main)"/>
<circle cx="900" cy="96" r="11" fill="#0969da" stroke="#ffffff" stroke-width="2"/>
<text x="900" y="100.5" font-size="12" font-weight="700" fill="#ffffff" text-anchor="middle">4</text>
<path d="M436 218 L226 218 L226 112 L186 112" fill="none" stroke="#0969da" stroke-width="2" stroke-linejoin="round" marker-end="url(#a-main)"/>
<circle cx="226" cy="170" r="11" fill="#0969da" stroke="#ffffff" stroke-width="2"/>
<text x="226" y="174.5" font-size="12" font-weight="700" fill="#ffffff" text-anchor="middle">5</text>
<path d="M212 304 L436 304" fill="none" stroke="#8c959f" stroke-width="1.5" stroke-dasharray="5 4" stroke-linejoin="round" marker-end="url(#a-sec)"/>
<circle cx="330" cy="304" r="11" fill="#0969da" stroke="#ffffff" stroke-width="2"/>
<text x="330" y="308.5" font-size="12" font-weight="700" fill="#ffffff" text-anchor="middle">6</text>
<path d="M690 316 L700 316 L700 380 L828 380" fill="none" stroke="#8c959f" stroke-width="1.5" stroke-dasharray="5 4" stroke-linejoin="round" marker-end="url(#a-sec)"/>
<path d="M182 500 L436 500" fill="none" stroke="#8c959f" stroke-width="1.5" stroke-dasharray="5 4" stroke-linejoin="round" marker-end="url(#a-sec)"/>
<circle cx="310" cy="500" r="11" fill="#0969da" stroke="#ffffff" stroke-width="2"/>
<text x="310" y="504.5" font-size="12" font-weight="700" fill="#ffffff" text-anchor="middle">7</text>
<path d="M690 500 L1036 500" fill="none" stroke="#8c959f" stroke-width="1.5" stroke-dasharray="5 4" stroke-linejoin="round" marker-end="url(#a-sec)"/></svg>
